<?xml version="1.0" encoding="UTF-8"?>
<svg width="154px" height="25px" viewBox="0 0 154 25" version="1.1" xmlns="http://www.w3.org/2000/svg" xmlns:xlink="http://www.w3.org/1999/xlink">
    <title>CB028C51-B4A9-42A3-9039-EC7B7A386799</title>
    <defs>
        <polygon id="path-1" points="0 23.897 153.536 23.897 153.536 0 0 0"></polygon>
    </defs>
    <g id="Navigation" stroke="none" stroke-width="1" fill="none" fill-rule="evenodd">
        <g id="COH_UI_KIT_Header" transform="translate(-195.000000, -559.000000)">
            <g id="Patient-Care-Nav" transform="translate(146.000000, 482.000000)">
                <g id="Nav/Patient-Care" transform="translate(0.000000, 40.000000)">
                    <g id="Group-30-Copy-21" transform="translate(49.000000, 37.000000)">
                        <polygon id="Fill-1" fill="#0072CE" points="13.0491 0 0.000100000001 0 0.000100000001 3.901 0.000100000001 23.56 11.5581 23.56 23.5551 23.56 23.5551 3.901 23.5551 0"></polygon>
                        <g id="Group-29" transform="translate(0.000000, 1.000000)">
                            <path d="M12.1526,14.6324 C11.9976,13.4354 12.0376,12.5564 12.1796,11.9174 C12.8006,11.7364 13.3996,11.5274 13.9446,11.3144 C14.0336,11.2824 14.1226,11.2514 14.2066,11.2164 C14.3046,14.5264 14.8326,18.3514 15.2136,20.6134 C14.3666,19.6024 12.4766,17.1004 12.1526,14.6324 M9.6146,9.5924 C9.5256,9.5264 9.4376,9.4544 9.3526,9.3894 C9.3436,9.0374 9.3266,8.7044 9.2996,8.3804 C9.2336,7.3694 9.0556,6.5584 8.8606,6.0174 C10.0046,4.9294 11.0206,3.8374 11.7756,2.9784 C12.5336,3.8374 13.5506,4.9294 14.6946,6.0174 C14.4956,6.5584 14.3216,7.3694 14.2516,8.3804 C14.1936,9.1004 14.1806,9.8994 14.1936,10.7364 C14.0476,10.7644 13.9006,10.7904 13.7546,10.8134 C13.0616,10.9234 12.3526,10.9774 11.7936,10.8834 C11.1146,10.6744 10.3116,10.1334 9.6146,9.5924 M22.4996,4.2854 C22.5216,4.2774 22.5346,4.2544 22.5346,4.2334 C22.5346,4.1974 22.5036,4.1654 22.4416,4.1794 C21.8156,4.3744 18.1336,5.5104 15.9816,5.1554 C14.7306,4.7704 13.1906,3.6114 12.0546,2.6574 C12.5696,2.0594 12.9336,1.6114 13.0796,1.4104 C13.1196,1.3624 13.0926,1.3044 13.0486,1.3044 C13.0356,1.3044 13.0176,1.3144 13.0046,1.3264 C12.8186,1.4904 12.3696,1.9124 11.7756,2.4264 C11.1806,1.9124 10.7326,1.4904 10.5506,1.3264 C10.4886,1.2654 10.4226,1.3494 10.4706,1.4104 C10.6216,1.6114 10.9856,2.0594 11.5006,2.6574 C11.4296,2.7154 11.3586,2.7784 11.2826,2.8394 C10.1736,3.7534 8.7406,4.7914 7.5736,5.1554 C5.4176,5.5104 1.7396,4.3744 1.1096,4.1794 C1.0516,4.1654 1.0206,4.1974 1.0206,4.2334 C1.0206,4.2544 1.0336,4.2774 1.0556,4.2854 C1.6196,4.5744 4.1706,5.8124 7.0146,6.6474 C7.2186,7.5694 7.2806,8.8424 7.0546,10.5724 C6.4556,15.1244 2.0546,19.9074 1.9386,20.0244 C1.8906,20.0764 1.9386,20.1604 1.9966,20.1254 C2.3566,19.8724 5.6746,17.6184 7.7606,13.8874 C8.1146,17.4414 7.8846,22.2904 7.8616,22.4734 C7.8486,22.5874 7.9646,22.5614 7.9776,22.5124 C8.1866,21.7804 9.4066,14.8554 9.3616,9.9114 C9.8096,10.3964 10.3336,10.9414 10.9016,11.4834 C10.7636,11.8554 10.6446,12.4184 10.5956,13.1194 C10.3286,16.5044 11.3536,22.3344 11.5136,22.8984 C11.5176,22.9114 11.5356,22.9204 11.5576,22.9204 C11.5896,22.9204 11.6196,22.9034 11.6116,22.8594 C11.5976,22.7304 11.4156,19.3894 11.6646,16.9264 C12.7076,18.7984 14.1536,20.0944 14.9656,20.7334 C15.0806,20.8214 15.1826,20.9024 15.2716,20.9634 C15.4136,21.7764 15.5246,22.3304 15.5776,22.5124 C15.5916,22.5614 15.7066,22.5874 15.6936,22.4734 C15.6706,22.2904 15.4356,17.4414 15.7956,13.8874 C17.8806,17.6184 21.1946,19.8724 21.5586,20.1254 C21.6116,20.1604 21.6646,20.0764 21.6116,20.0244 C21.5006,19.9074 17.0996,15.1244 16.5006,10.5724 C16.2746,8.8424 16.3366,7.5694 16.5406,6.6474 C19.3846,5.8124 21.9306,4.5744 22.4996,4.2854 M12.9596,9.4864 C12.9596,9.0814 12.6366,8.7534 12.2326,8.7534 C11.8326,8.7534 11.5046,9.0814 11.5046,9.4864 C11.5046,9.8854 11.8326,10.2134 12.2326,10.2134 C12.6366,10.2134 12.9596,9.8854 12.9596,9.4864 M7.1036,2.0194 C7.6846,2.0194 8.1546,2.4884 8.1546,3.0704 C8.1546,3.6524 7.6846,4.1214 7.1036,4.1214 C6.5226,4.1214 6.0516,3.6524 6.0516,3.0704 C6.0516,2.4884 6.5226,2.0194 7.1036,2.0194 M16.6206,2.0764 C17.2016,2.0764 17.6716,2.5514 17.6716,3.1324 C17.6716,3.7134 17.2016,4.1844 16.6206,4.1844 C16.0346,4.1844 15.5646,3.7134 15.5646,3.1324 C15.5646,2.5514 16.0346,2.0764 16.6206,2.0764" id="Fill-2" fill="#FFFFFF"></path>
                            <path d="M153.2649,17.2594 C153.2649,16.1454 152.5329,15.5204 151.6229,15.5204 C150.7089,15.5204 149.9819,16.1454 149.9819,17.2594 C149.9819,18.3684 150.7089,18.9884 151.6229,18.9884 C152.5369,18.9884 153.2649,18.3684 153.2649,17.2594 M151.6229,15.2934 C152.7499,15.2934 153.5359,16.0884 153.5359,17.2594 C153.5359,18.4264 152.7369,19.2204 151.6229,19.2204 C150.4879,19.2204 149.7019,18.4354 149.7019,17.2594 C149.7019,16.0974 150.5049,15.2934 151.6229,15.2934" id="Fill-4" fill="#7E7F74"></path>
                            <path d="M151.9915,16.7623 C151.9915,16.5493 151.8535,16.4423 151.6095,16.4423 L151.3265,16.4423 L151.3265,17.0823 L151.5925,17.0823 C151.8405,17.0823 151.9915,16.9843 151.9915,16.7623 M151.9335,17.3343 L152.5545,18.2223 L152.1865,18.3063 L151.5345,17.3793 L151.3265,17.3793 L151.3265,18.2753 L150.9525,18.2753 L150.9525,16.1053 L151.6095,16.1053 C152.0665,16.1053 152.3685,16.3323 152.3685,16.7353 C152.3685,17.0503 152.2005,17.2503 151.9335,17.3343" id="Fill-6" fill="#7E7F74"></path>
                            <path d="M138.9519,11.2916 L145.9179,11.2916 C145.7269,8.9976 144.6479,7.3526 142.5949,7.3526 C140.5979,7.3526 139.3029,8.8386 138.9519,11.2916 M147.7499,12.3166 L147.7499,12.6936 L138.8719,12.6936 C138.9249,15.8266 140.3849,17.6896 142.9499,17.6896 C144.6479,17.6896 146.1309,16.9316 147.4529,15.7996 L147.7239,17.4186 C146.4549,18.4966 144.8089,19.2256 142.8389,19.2256 C139.4929,19.2256 137.0879,16.9616 137.0879,12.5616 C137.0879,8.4566 139.4669,5.9186 142.5949,5.9186 C146.0779,5.9186 147.7499,8.7806 147.7499,12.3166" id="Fill-8" fill="#7E7F74"></path>
                            <path d="M133.2551,12.2897 C133.2551,9.1847 131.7691,7.5127 129.7451,7.5127 C128.2321,7.5127 127.0751,8.4027 125.9121,9.8107 L125.9121,16.8517 C126.9101,17.3397 127.8551,17.6097 129.1781,17.6097 C131.4711,17.6097 133.2551,15.8527 133.2551,12.2897 M129.9321,5.9187 C132.7141,5.9187 135.0611,7.9457 135.0611,12.2097 C135.0611,16.8777 132.3361,19.1177 129.2301,19.1177 C127.9621,19.1177 126.8311,18.8737 125.9121,18.4967 L125.9121,23.5997 L124.1331,23.8967 L124.1331,6.1887 L125.5081,6.1887 L125.8061,8.0257 C126.8041,6.8907 128.0731,5.9187 129.9321,5.9187" id="Fill-10" fill="#7E7F74"></path>
                            <path d="M116.0183,17.7164 C118.6093,17.7164 119.9843,15.6094 119.9843,12.5874 C119.9843,9.6464 118.5783,7.4324 116.0183,7.4324 C113.4803,7.4324 112.1053,9.5664 112.1053,12.5874 C112.1053,15.5284 113.5073,17.7164 116.0183,17.7164 M116.0183,5.9194 C119.3373,5.9194 121.8213,8.3504 121.8213,12.5874 C121.8213,16.7984 119.2833,19.2244 116.0183,19.2244 C112.7533,19.2244 110.2953,16.7984 110.2953,12.5874 C110.2953,8.3504 112.8063,5.9194 116.0183,5.9194" id="Fill-12" fill="#7E7F74"></path>
                            <polygon id="Fill-14" fill="#7E7F74" points="107.7923 0.3326 107.7923 18.9536 105.9293 18.9536 105.9293 10.0506 95.5913 10.0506 95.5913 18.9536 93.7323 18.9536 93.7323 0.3326 95.5913 0.3326 95.5913 8.3766 105.9293 8.3766 105.9293 0.3326"></polygon>
                            <path d="M87.8709,4.69 L88.2349,6.207 C87.4359,6.127 87.2759,6.154 87.2679,6.154 C86.4149,6.154 86.0389,6.544 86.0389,7.392 L86.0389,9.366 L87.9909,9.366 L88.2259,10.822 L86.0389,10.822 L86.0389,18.99 L84.4059,18.99 L84.4059,10.822 L82.9949,10.822 L82.9949,9.366 L84.4059,9.366 L84.4059,7.294 C84.4059,5.577 85.3949,4.628 87.1919,4.628 C87.1919,4.628 87.5289,4.631 87.8709,4.69" id="Fill-16" fill="#7E7F74"></path>
                            <path d="M77.8884,17.7604 C79.5964,17.7604 80.6214,16.4244 80.6214,14.1894 C80.6214,12.0054 79.5474,10.5954 77.8884,10.5954 C76.2294,10.5954 75.1944,11.9704 75.1944,14.1894 C75.1944,16.3594 76.2514,17.7604 77.8884,17.7604 M77.8884,9.1704 C80.5154,9.1704 82.2764,11.1904 82.2764,14.1894 C82.2764,17.1794 80.5154,19.1844 77.8884,19.1844 C75.2974,19.1844 73.5584,17.1794 73.5584,14.1894 C73.5584,11.1904 75.2974,9.1704 77.8884,9.1704" id="Fill-18" fill="#7E7F74"></path>
                            <path d="M71.3084,6.2076 L65.9134,20.5636 C64.9944,23.0496 63.8594,23.8346 61.9694,23.8346 C61.7024,23.8346 61.4584,23.7806 61.2684,23.7506 L61.0284,22.1846 C61.2944,22.2416 61.6764,22.2956 62.0794,22.2956 C63.1314,22.2956 63.7524,21.8336 64.2364,20.5916 L64.8304,19.0566 L59.9994,6.3706 L61.7294,6.0476 L65.6954,16.9226 L69.4764,6.2076 L71.3084,6.2076 Z" id="Fill-20" fill="#7E7F74"></path>
                            <path d="M58.3884,17.4898 L58.6594,18.9718 C58.2824,19.0828 57.6344,19.1888 56.8804,19.1888 C54.8834,19.1888 53.5564,18.4078 53.5564,16.0608 L53.5564,7.7198 L51.5914,7.7198 L51.5914,6.2068 L53.5564,6.2068 L53.5564,1.7838 L55.3134,1.4858 L55.3134,6.2068 L58.2554,6.2068 L58.4994,7.7198 L55.3134,7.7198 L55.3134,15.7638 C55.3134,17.0598 55.8244,17.6228 57.2034,17.6228 C57.6074,17.6228 58.0914,17.5438 58.3884,17.4898" id="Fill-22" fill="#7E7F74"></path>
                            <path d="M47.2742,0.568 C47.9752,0.568 48.5432,1.162 48.5432,1.864 C48.5432,2.565 47.9752,3.159 47.2742,3.159 C46.5732,3.159 45.9782,2.565 45.9782,1.864 C45.9782,1.162 46.5732,0.568 47.2742,0.568" id="Fill-24" fill="#7E7F74"></path>
                            <mask id="mask-2" fill="white">
                                <use xlink:href="#path-1"></use>
                            </mask>
                            <g id="Clip-27"></g>
                            <polygon id="Fill-26" fill="#7E7F74" mask="url(#mask-2)" points="46.382 18.971 48.135 18.971 48.135 6.206 46.382 6.206"></polygon>
                            <path d="M42.8596,15.6793 L43.1306,17.4633 C41.7236,18.5153 39.6736,19.3233 37.4596,19.3233 C32.4156,19.3233 29.0126,15.4363 29.0126,9.6903 C29.0126,3.9663 32.4686,-0.0007 37.5976,-0.0007 C39.7006,-0.0007 41.4266,0.6213 42.8326,1.5923 L42.5356,3.4833 C41.0756,2.4323 39.4566,1.6723 37.5706,1.6723 C33.4666,1.6723 30.9286,4.9113 30.9286,9.6363 C30.9286,14.4103 33.4936,17.6223 37.5446,17.6223 C39.5406,17.6223 41.3466,16.8413 42.8596,15.6793" id="Fill-28" fill="#7E7F74" mask="url(#mask-2)"></path>
                        </g>
                    </g>
                </g>
            </g>
        </g>
    </g>
</svg>