<?xml version="1.0" encoding="utf-8"?>
<!-- Generator: Adobe Illustrator 22.0.1, SVG Export Plug-In . SVG Version: 6.00 Build 0)  -->
<svg version="1.1" id="Layer_1" xmlns="http://www.w3.org/2000/svg" xmlns:xlink="http://www.w3.org/1999/xlink" x="0px" y="0px"
	 viewBox="0 0 360 144" style="enable-background:new 0 0 360 144;" xml:space="preserve">
<style type="text/css">
	.st0{fill:#7C1419;}
	.st1{fill-rule:evenodd;clip-rule:evenodd;fill:#AD4B4C;}
	.st2{fill-rule:evenodd;clip-rule:evenodd;fill:#008A53;}
	.st3{fill-rule:evenodd;clip-rule:evenodd;fill:#AF4A4D;}
	.st4{fill-rule:evenodd;clip-rule:evenodd;fill:#79112A;}
</style>
<g>
	<g>
		<path class="st0" d="M19,127c-4.8,0-8.4-3.3-8.4-8.3c0-4.9,3.7-8.3,8.4-8.3c4.7,0,8.4,3.4,8.4,8.3C27.4,123.7,23.7,127,19,127z
			 M19,113.1c-3.2,0-5.2,2.5-5.2,5.6c0,3.1,2,5.6,5.2,5.6c3.2,0,5.2-2.5,5.2-5.6C24.1,115.6,22.2,113.1,19,113.1z"/>
		<path class="st0" d="M44.6,126.7h-3.2v-8.9c0-2.7-0.5-4.7-3.3-4.7c-3,0-4.1,2.5-4.1,5.6v8h-3.2v-15.9h3.2l0,2.5H34
			c0.8-1.6,2.5-2.8,4.9-2.8c4.5,0,5.7,3,5.7,6.8V126.7z"/>
		<path class="st0" d="M63.3,119.5H51c0.2,3.1,2.2,5.1,5.1,5.1c3,0,4.9-1.6,5.3-1.8l1.3,1.8c-0.2,0.2-2.2,2.5-7,2.5
			c-4.7,0-8-3.3-8-8.3c0-5,3.6-8.2,8.1-8.2c4.4,0,7.5,3.1,7.5,7.6C63.4,118.7,63.3,119.5,63.3,119.5z M60.3,117.3
			c0-1.8-1.4-4.6-4.6-4.6c-3.2,0-4.6,2.6-4.7,4.6H60.3z"/>
		<path class="st0" d="M86.1,126.7h-3.6l-2.4-6h-9.9l-2.4,6h-3.4l9.4-23.2h2.8L86.1,126.7z M79.2,117.9l-4.1-10.4l-4.1,10.4H79.2z"
			/>
		<path class="st0" d="M113.2,126.7H110l-1.5-18.2h-0.1l-7.1,18.4h-1.8l-7.1-18.4h-0.1l-1.5,18.2h-3.2l2.1-23.1h4l6.7,17.8h0.1
			l6.7-17.8h4L113.2,126.7z"/>
		<path class="st0" d="M133.9,103.6l-8,13.4v9.7h-3.2V117l-8-13.4h3.6l6,10.6l6-10.6H133.9z"/>
		<path class="st0" d="M147.8,126.7h-11.4v-23.1h3.2v20.3h8.1V126.7z"/>
		<path class="st0" d="M160,127.1c-6.5,0-11.9-4.5-11.9-11.9s5.4-11.9,11.9-11.9s11.9,4.5,11.9,11.9S166.5,127.1,160,127.1z
			 M160,106c-4.7,0-8.6,3.4-8.6,9c0,5.6,3.9,9,8.6,9c4.7,0,8.6-3.4,8.6-9C168.6,109.4,164.7,106,160,106z"/>
		<path class="st0" d="M179,126.7h-3.2v-23.1h3.2V126.7z"/>
		<path class="st0" d="M199.7,123.7c-1.7,1.5-4.6,3-8.6,3h-7v-23.1h7c4,0,7,1.5,8.6,3s3.6,4.2,3.6,8.5S201.3,122.1,199.7,123.7z
			 M197.2,108.5c-1.3-1.2-3.3-2.1-6.2-2.1h-3.7v17.5h3.7c2.8,0,4.9-0.9,6.2-2.1c1.3-1.2,2.7-3.2,2.7-6.6S198.4,109.7,197.2,108.5z"
			/>
		<path class="st0" d="M217.6,127.1c-6.5,0-11.9-4.5-11.9-11.9s5.4-11.9,11.9-11.9c6.5,0,11.9,4.5,11.9,11.9
			S224.1,127.1,217.6,127.1z M217.6,106c-4.7,0-8.6,3.4-8.6,9c0,5.6,3.9,9,8.6,9c4.7,0,8.6-3.4,8.6-9
			C226.2,109.4,222.3,106,217.6,106z"/>
		<path class="st0" d="M245,125.3c-1.4,1.2-3.3,1.8-5.7,1.8c-4.1,0-6.4-2.6-7.5-3.9l1.9-2.2c1.2,1.6,3.3,3.3,5.9,3.3
			c2.5,0,4.5-1.4,4.5-3.9c0-2.4-2.6-3.3-3.8-3.8c-1.2-0.5-2.8-1.1-3.7-1.5c-0.5-0.2-1.5-0.7-2.3-1.6c-0.8-0.9-1.5-2.1-1.5-4
			s0.9-3.4,2.1-4.5c1.3-1.1,3.1-1.7,5.3-1.7c3.8,0,6,2.3,6.6,3l-1.7,2.2c-1.1-1.2-2.8-2.5-5.1-2.5c-2.3,0-4,1.1-4,3.2s1.6,2.9,3,3.5
			l4.3,1.8c0.4,0.2,1.8,1,2.6,1.9c0.7,0.9,1.4,2.1,1.4,3.9C247.4,122.2,246.5,124,245,125.3z"/>
		<path class="st0" d="M254.4,126.7h-3.2v-23.1h3.2V126.7z"/>
		<path class="st0" d="M271.2,125.3c-1.4,1.2-3.3,1.8-5.7,1.8c-4.1,0-6.4-2.6-7.5-3.9l1.9-2.2c1.2,1.6,3.3,3.3,5.9,3.3
			c2.5,0,4.5-1.4,4.5-3.9c0-2.4-2.6-3.3-3.8-3.8c-1.2-0.5-2.8-1.1-3.7-1.5c-0.5-0.2-1.5-0.7-2.3-1.6c-0.8-0.9-1.5-2.1-1.5-4
			s0.9-3.4,2.1-4.5c1.3-1.1,3.1-1.7,5.3-1.7c3.8,0,6,2.3,6.6,3l-1.7,2.2c-1.1-1.2-2.8-2.5-5.1-2.5c-2.3,0-4,1.1-4,3.2s1.6,2.9,3,3.5
			l4.3,1.8c0.4,0.2,1.8,1,2.6,1.9c0.7,0.9,1.4,2.1,1.4,3.9C273.7,122.2,272.8,124,271.2,125.3z"/>
		<path class="st0" d="M290.6,110.8l-6.6,15.9h-2.8l-6.6-15.9h3.3l4.7,12l4.7-12H290.6z"/>
		<path class="st0" d="M299.6,127c-4.8,0-8.4-3.3-8.4-8.3c0-4.9,3.7-8.3,8.4-8.3c4.7,0,8.4,3.4,8.4,8.3
			C308,123.7,304.3,127,299.6,127z M299.6,113.1c-3.2,0-5.2,2.5-5.2,5.6c0,3.1,2,5.6,5.2,5.6c3.2,0,5.2-2.5,5.2-5.6
			C304.7,115.6,302.7,113.1,299.6,113.1z"/>
		<path class="st0" d="M313,107.5c-1.2,0-2.1-0.8-2.1-2c0-1.1,0.9-2,2.1-2c1.2,0,2.1,0.8,2.1,2C315.1,106.7,314.3,107.5,313,107.5z
			 M314.7,126.7h-3.2v-15.9h3.2V126.7z"/>
		<path class="st0" d="M332.5,124.6c-0.5,0.5-2.1,2.4-6.4,2.4c-4.3,0-8-3.2-8-8.3c0-5.1,3.9-8.3,8.1-8.3c4.3,0,6,2.1,6.2,2.3
			l-1.1,2.3c-0.5-0.5-1.9-1.9-4.8-1.9c-2.8,0-5.2,2.1-5.2,5.5c0,3.3,2.1,5.7,5.2,5.7c3.1,0,4.8-2,4.8-2L332.5,124.6z"/>
		<path class="st0" d="M349.5,119.5h-12.3c0.2,3.1,2.2,5.1,5.1,5.1c3,0,4.9-1.6,5.3-1.8l1.3,1.8c-0.2,0.2-2.2,2.5-7,2.5
			c-4.7,0-8-3.3-8-8.3c0-5,3.6-8.2,8.1-8.2c4.4,0,7.5,3.1,7.5,7.6C349.6,118.7,349.5,119.5,349.5,119.5z M346.6,117.3
			c0-1.8-1.4-4.6-4.6-4.6c-3.2,0-4.6,2.6-4.7,4.6H346.6z"/>
	</g>
	<g>
		<path class="st1" d="M175.9,51.4l0,5.7c0,2.7-2.2,4.8-4.8,4.8h-25.6c-1.6,0-2.8-1.3-2.8-2.8V35.2l-5.4-2.7l5.4-2.9v-11
			c0-1.6,1.3-2.8,2.8-2.8h27.6c1.6,0,2.8,1.3,2.8,2.8l0,7.2h2l2.1-3.9v-3.2c0-3.9-3.1-7-7-7h-27.6c-3.9,0-7,3.1-7,7v8.9l-8.9,5.1
			l8.9,4.7v21.9c0,3.9,3.1,7,7,7h25.6c4.4,0,8-3.1,8.8-7.2V55L175.9,51.4z"/>
		<path class="st1" d="M156.2,72.6c0,3.9,3.1,7,7,7h15.5l5.1,8.9l4.7-8.9h15.3c3.9,0,7-3.1,7-7V47c0-5-4-9-9-9h-13.6v4.2h13.6
			c1.7,0,3.1,0.8,4,2.1c0.2,0.3,0.3,0.5,0.4,0.8c0.2,0.6,0.4,1.2,0.4,1.9v25.6c0,1.6-1.3,2.8-2.8,2.8l-17.5,0l-2.5,5.4l-2.9-5.4
			h-17.7c-1.6,0-2.8-1.3-2.8-2.8V45c0-1.6,1.3-2.8,2.8-2.8h4.7V38h-4.7c-3.9,0-7,3.1-7,7V72.6z"/>
		<path class="st2" d="M206.6,47c0-0.7-0.2-1.3-0.4-1.9C206.5,45.7,206.6,46.3,206.6,47"/>
	</g>
	<g>
		<path class="st3" d="M223.5,18.7h-7.4L211,9.8l-4.7,8.9h-23.4c-1,0-2,0.2-2.8,0.6c-2.4,1.1-4.2,3.5-4.2,6.4v4.2h4.2h0v-4.2
			c0-1.6,1.3-2.8,2.8-2.8l25.3,0l2.8-5.4l2.9,5.4h9.5c1.6,0,2.8,1.3,2.8,2.8v27.6c0,1.6-1.3,2.8-2.8,2.8h-38.6c-1.8,0-3.4-1-4.2-2.5
			c-0.4-0.7-0.6-1.5-0.6-2.3v-1.2h-4.2l0,1.2c0,3.1,1.6,5.8,4,7.5c1.4,1,3.2,1.5,5,1.5h38.6c3.9,0,7-3.1,7-7V25.8
			C230.5,21.9,227.3,18.7,223.5,18.7"/>
		<rect x="180.1" y="32.7" class="st2" width="0" height="0"/>
	</g>
	<g>
		<polygon class="st4" points="175.9,38 175.9,32.7 180.1,32.7 180.1,38 185.4,38 185.4,42.2 180.1,42.2 180.1,47.4 175.9,47.4 
			175.9,42.2 170.7,42.2 170.7,38 		"/>
	</g>
</g>
</svg>
